<?xml version="1.0" encoding="utf-8"?>
<!-- Generator: Adobe Illustrator 15.0.1, SVG Export Plug-In  -->
<!DOCTYPE svg PUBLIC "-//W3C//DTD SVG 1.1//EN" "http://www.w3.org/Graphics/SVG/1.1/DTD/svg11.dtd" [
	<!ENTITY ns_flows "http://ns.adobe.com/Flows/1.0/">
]>
<svg version="1.1"
	 xmlns="http://www.w3.org/2000/svg" xmlns:xlink="http://www.w3.org/1999/xlink" xmlns:a="http://ns.adobe.com/AdobeSVGViewerExtensions/3.0/"
	 x="0px" y="0px" width="419px" height="123px" viewBox="0 0 419 123" overflow="visible" enable-background="new 0 0 419 123"
	 xml:space="preserve">
<defs>
</defs>
<path id="XMLID_12_" fill="#FFFFFF" d="M118.642,32.798c-7.652-0.264-11.912,4.705-12.252,11.723h23.066
	C129.895,37.118,125.537,33.036,118.642,32.798L118.642,32.798z M151.061,59.866h-44.604c0.961,6.293,5.738,11.892,17.197,11.188
	c8.648-0.531,13.136-2.404,18.619-4.869l7.609,15.941c-11.264,5.508-16.019,7.012-28.897,7.566
	C98.906,90.652,83.709,75.891,82.797,54.5c-0.915-21.316,12.568-38.952,35.86-38.952c21.149,0,33.2,14.226,33.115,33.765
	C151.755,52.905,151.438,56.713,151.061,59.866z"/>
<polygon id="XMLID_11_" fill="#FFFFFF" points="51.73,88.036 51.73,53.16 24.141,53.16 24.141,88.036 0,88.036 0,0.063 
	24.141,0.063 24.141,33.285 51.73,33.285 51.73,0.063 75.875,0.063 75.875,88.036 "/>
<path id="XMLID_8_" fill="#FFFFFF" d="M319.528,15.548c9.708,0,18.453,3.836,24.968,9.822c7.385,6.794,11.688,16.162,11.688,27.261
	c0,9.885-3.171,19.409-9.451,26.067c-6.688,7.091-16.429,11.002-27.205,11.002c-10.437,0-20.011-3.793-26.779-10.532
	c-6.548-6.521-9.774-16.52-9.886-26.537c-0.12-10.992,3.906-20.639,10.724-27.376C300.204,18.722,309.321,15.548,319.528,15.548
	L319.528,15.548z M319.591,34.859c-8.324,0-14.057,6.984-13.923,17.069c0.14,10.092,5.674,16.73,13.923,16.73
	c8.252,0,14.086-7.309,14.086-16.73C333.677,42.51,327.914,34.859,319.591,34.859z"/>
<path id="XMLID_7_" fill="#FFFFFF" d="M181.726,53.999l0.201,33.978h-22.415V17.273h15.405l3.934,8.231
	c7.514-9.348,17.706-10.786,27.547-9.196l2.171,4.371l-7.926,17.032C191.119,35.022,181.645,39.073,181.726,53.999z"/>
<path id="XMLID_4_" fill="#FFFFFF" d="M276.768,89.475c0,27.87-19.391,32.887-36.053,33.116c-10.816,0.048-18.72-2.282-27.539-7.354
	l8.602-18.35c5.248,2.887,9.685,4.907,17.885,4.769c9.587-0.026,15.105-3.229,14.951-12.325c-0.023-1.278-0.035-3.107-0.03-4.84
	c-4.051,2.451-8.871,4.064-14.498,4.447c-17.491,1.176-35.899-11.063-35.978-36.308c-0.032-10.992,3.902-20.639,10.725-27.376
	c6.348-6.262,14.391-9.496,21.801-9.486c7.975,0.004,14.635,2.501,19.902,6.572l2.375-5.067h17.861L276.768,89.475L276.768,89.475z
	 M240.835,34.859c-8.987,0-14.063,6.984-13.927,17.069c0.143,10.092,4.548,16.69,13.927,16.73
	c11.549,0.058,13.593-9.798,13.722-16.73C254.686,45,251.773,34.859,240.835,34.859z"/>
<polygon id="XMLID_3_" fill="#E30613" points="418.91,43.732 418.898,43.737 418.91,43.742 388.699,87.99 358.943,87.955 
	391.037,43.737 360.359,0 387.924,0.006 "/>
</svg>
